<?xml version="1.0" encoding="utf-8"?>
<svg id="master-artboard" viewBox="0 0 500 500" version="1.1" xmlns="http://www.w3.org/2000/svg" x="0px" y="0px" style="enable-background:new 0 0 1400 980;">
	<g transform="matrix(2.0242912769317627, 0, 0, 2.0242912769317627, -2.2737367544323206e-13, 0.8274841843965532)">
		<path d="M 0 0 H 247 V 247 H 0 V 0 Z" fill="rgb(0, 129, 199)" style="fill: rgb(0, 129, 199);"/>
		<path fill="white" d="M193.935,16.623c-14.048,0-26.129,5.381-34.652,14.001V18.161h-21.304l-23.615,37.987L90.752,18.161H12.213&#10;&#9;&#9;v16.942h35.288l-21.427,21.56l3.077,12.575h8.212c11.038,0,17.584,4.106,17.584,11.424v0.253c0,6.677-5.262,10.911-12.708,10.911&#10;&#9;&#9;c-9.108,0-15.525-3.851-21.687-10.778L6.95,94.011c7.703,9.109,18.866,15.524,35.037,15.524c12.577,0,22.109-4.92,27.462-12.772&#10;&#9;&#9;v11.23h19.375V49.735l25.03,37.979h0.509L139.65,49.35v58.643h19.632V95.804c8.449,8.474,20.423,13.731,34.394,13.731&#10;&#9;&#9;c27.723,0,47.873-20.916,47.873-46.455v-0.257C241.549,37.282,221.654,16.623,193.935,16.623 M50.199,54.741l19.25-18.388v28.241&#10;&#9;&#9;C64.848,58.842,57.58,55.979,50.199,54.741 M220.883,63.339c0,15.394-11.034,27.969-26.948,27.969&#10;&#9;&#9;c-15.915,0-27.21-12.824-27.21-28.228v-0.257c0-15.401,11.041-27.977,26.951-27.977c15.911,0,27.207,12.83,27.207,28.233V63.339z" transform="matrix(0.9720877408981323, 0, 0, 0.9720877408981323, 2.356619358062744, 60.218463324963565)"/>
	</g>
</svg>